<svg class="diagram-root" style="background: #f5f6f6" xmlns="http://www.w3.org/2000/svg" xmlns:xlink="http://www.w3.org/1999/xlink"><style>.diagram-root { font-family: "Helvetica Neue", sans-serif; font-size: 12px; } .t { overflow: visible; } .t-bg { y: 40; fill: #fff;   } .th { fill: #005aa0;   } .tht { fill: #fff; font-size: 14px;  } .tf { fill: #323c46; overflow: visible; } .tf.pk { fill: #005aa0; font-weight: bold; } .tf.fk { font-weight: bold; } .ty { fill: #adb1b5; font-weight: normal; text-anchor: end; } .r { fill: transparent; stroke: #c3c3c3; stroke-width: 1; } .l { stroke: 1; } .i { fill: #c2c7ce; stroke: #c2c7ce; } .i.ix { fill: #afb3b6; stroke: #000; } .fa { fill: transparent; overflow: visible; } .fa .bg.hover { fill: #f7f7f7; } .c { cy: 12; r: 4; stroke: #d2d2dc; fill: #d2d2dc; } .hr { fill: transparent; stroke: #323c46; stroke-opacity: 0.035; stroke-width: 13; } .dc { stroke: #fa5a3c; fill: #fa5a3c; } .x { stroke: white; stroke-width: 1; } .hl .th { fill: #1b9bff; } .hl .tht {  } .fhl .bg { fill: #e7f4ff; } .fhls .bg {  } .r.hl { stroke: #1b9bff; } .dim { opacity: 0.25; }</style><g class="drawing-wrapper" transform="translate(-73, 7) scale(1,1)"><g class="rs"><path d="M 95 358 m -1, 0 a 1,1 0 1,0 2,0 a 1,1 0 1,0 -2,0 M 95 358 m -0.5, 0 a 0.5,0.5 0 1,0 1,0 a 0.5,0.5 0 1,0 -1,0  M95 358 L95 358 83 358 M 95 364 m -1, 0 a 1,1 0 1,0 2,0 a 1,1 0 1,0 -2,0 M 95 364 m -0.5, 0 a 0.5,0.5 0 1,0 1,0 a 0.5,0.5 0 1,0 -1,0  M95 364 L95 364 88 358 95 352 M 95 352 m -1, 0 a 1,1 0 1,0 2,0 a 1,1 0 1,0 -2,0 M 95 352 m -0.5, 0 a 0.5,0.5 0 1,0 1,0 a 0.5,0.5 0 1,0 -1,0  M83 358 C 33 358, 33 80, 83 80 M 95 80 m -1, 0 a 1,1 0 1,0 2,0 a 1,1 0 1,0 -2,0 M 95 80 m -0.5, 0 a 0.5,0.5 0 1,0 1,0 a 0.5,0.5 0 1,0 -1,0  M95 80 L95 80 83 80 M 95 86 m -1, 0 a 1,1 0 1,0 2,0 a 1,1 0 1,0 -2,0 M 95 86 m -0.5, 0 a 0.5,0.5 0 1,0 1,0 a 0.5,0.5 0 1,0 -1,0  M95 86 L95 86 88 80 95 74 M 95 74 m -1, 0 a 1,1 0 1,0 2,0 a 1,1 0 1,0 -2,0 M 95 74 m -0.5, 0 a 0.5,0.5 0 1,0 1,0 a 0.5,0.5 0 1,0 -1,0 " id="h994493194" class="r"></path><path d="M 346 106 m -1, 0 a 1,1 0 1,0 2,0 a 1,1 0 1,0 -2,0 M 346 106 m -0.5, 0 a 0.5,0.5 0 1,0 1,0 a 0.5,0.5 0 1,0 -1,0  M346 106 L346 106 334 106 M 346 112 m -1, 0 a 1,1 0 1,0 2,0 a 1,1 0 1,0 -2,0 M 346 112 m -0.5, 0 a 0.5,0.5 0 1,0 1,0 a 0.5,0.5 0 1,0 -1,0  M346 112 L346 112 339 106 346 100 M 346 100 m -1, 0 a 1,1 0 1,0 2,0 a 1,1 0 1,0 -2,0 M 346 100 m -0.5, 0 a 0.5,0.5 0 1,0 1,0 a 0.5,0.5 0 1,0 -1,0  M334 106 Q 314.26 106, 294.52 93 T 255.05 80 M 243.05 80 m -1, 0 a 1,1 0 1,0 2,0 a 1,1 0 1,0 -2,0 M 243.05 80 m -0.5, 0 a 0.5,0.5 0 1,0 1,0 a 0.5,0.5 0 1,0 -1,0  M243.05 80 L243.05 80 255.05 80 M249.05 86 L249.05 86 249.05 74" id="h95395958" class="r"></path><path d="M 346 131 m -1, 0 a 1,1 0 1,0 2,0 a 1,1 0 1,0 -2,0 M 346 131 m -0.5, 0 a 0.5,0.5 0 1,0 1,0 a 0.5,0.5 0 1,0 -1,0  M346 131 L346 131 334 131 M340 137 L340 137 340 125 M334 131 Q 305.93 131, 277.85 207 T 221.69 283 M 209.69 283 m -1, 0 a 1,1 0 1,0 2,0 a 1,1 0 1,0 -2,0 M 209.69 283 m -0.5, 0 a 0.5,0.5 0 1,0 1,0 a 0.5,0.5 0 1,0 -1,0  M209.69 283 L209.69 283 221.69 283 M215.69 289 L215.69 289 215.69 277" id="h1941192462" class="r"></path></g><g class="hrs"></g><g class="ts"><svg width="148.05" height="175" x="95" y="23" id="h1537667952" class="t"><rect height="40" width="148.05" class="th"></rect><text x="13" y="25" class="tht">User</text><rect height="135" width="148.05" class="t-bg"></rect><text x="13" y="61" class="tf pk">UserID<tspan x="135.05" class="ty">int</tspan></text><path d="M7,14A2,2 0 0,1 5,12A2,2 0 0,1 7,10A2,2 0 0,1 9,12A2,2 0 0,1 7,14M12.65,10C11.83,7.67 9.61,6 7, 6A6, 6 0 0, 0 1, 12A6, 6 0 0, 0 7, 18C9.61, 18 11.83, 16.33 12.65, 14H17V18H21V14H23V10H12.65Z" class="i pk" transform="translate(102.37617187500001, 48) scale(0.65)"></path><text x="13" y="86" class="tf">NickName<tspan x="135.05" class="ty">string</tspan></text><path d="M814.545 581.818v-23.273H535.273v-93.09h-46.546v93.09H209.455v139.637H256V605.09h232.727v93.09h46.546v-93.09H768v93.09h46.545V581.819zM674.91 465.455H349.091V139.636h325.818v325.819zM325.82 884.364H139.635V698.182h186.182v186.182z m279.272 0H418.909V698.182h186.182v186.182z m279.273 0H698.182V698.182h186.182v186.182zM395.636 418.909h232.728V186.182H395.636v232.727zM186.182 837.82h93.09v-93.092h-93.09v93.091z m279.273 0h93.09v-93.092h-93.09v93.091z m279.272 0h93.091v-93.092h-93.09v93.091z" class="i ix" transform="translate(90.70625000000001, 75) scale(0.014)"></path><text x="13" y="111" class="tf">FirstName<tspan x="135.05" class="ty">string</tspan></text><text x="13" y="136" class="tf">SecondName<tspan x="135.05" class="ty">string</tspan></text><text x="13" y="161" class="tf">Email<tspan x="135.05" class="ty">string</tspan></text></svg><svg width="114.69" height="150" x="95" y="226" id="h2048574129" class="t"><rect height="40" width="114.69" class="th"></rect><text x="13" y="25" class="tht">Item</text><rect height="110" width="114.69" class="t-bg"></rect><text x="13" y="61" class="tf pk">ItemID<tspan x="101.69" class="ty">int</tspan></text><path d="M7,14A2,2 0 0,1 5,12A2,2 0 0,1 7,10A2,2 0 0,1 9,12A2,2 0 0,1 7,14M12.65,10C11.83,7.67 9.61,6 7, 6A6, 6 0 0, 0 1, 12A6, 6 0 0, 0 7, 18C9.61, 18 11.83, 16.33 12.65, 14H17V18H21V14H23V10H12.65Z" class="i pk" transform="translate(69.016171875, 48) scale(0.65)"></path><text x="13" y="86" class="tf">Name<tspan x="101.69" class="ty">string</tspan></text><text x="13" y="111" class="tf">Price<tspan x="101.69" class="ty">decimal</tspan></text><text x="13" y="136" class="tf fk">BoughtBy<tspan x="101.69" class="ty">int</tspan></text></svg><svg width="160.06" height="125" x="346" y="24" id="h3780156032" class="t"><rect height="40" width="160.06" class="th"></rect><text x="13" y="25" class="tht">ShoppingList</text><rect height="85" width="160.06" class="t-bg"></rect><text x="13" y="61" class="tf pk">ShoppingListID<tspan x="147.06" class="ty">int</tspan></text><path d="M7,14A2,2 0 0,1 5,12A2,2 0 0,1 7,10A2,2 0 0,1 9,12A2,2 0 0,1 7,14M12.65,10C11.83,7.67 9.61,6 7, 6A6, 6 0 0, 0 1, 12A6, 6 0 0, 0 7, 18C9.61, 18 11.83, 16.33 12.65, 14H17V18H21V14H23V10H12.65Z" class="i pk" transform="translate(114.386171875, 48) scale(0.65)"></path><text x="13" y="86" class="tf fk">Participants<tspan x="147.06" class="ty">int</tspan></text><text x="13" y="111" class="tf fk">Item<tspan x="147.06" class="ty">int</tspan></text></svg></g></g><text class="qdbd-link" x="10" y="20">www.quickdatabasediagrams.com</text></svg>